<svg width="70" height="70" viewBox="0 0 70 70" fill="none" xmlns="http://www.w3.org/2000/svg">
<g id="&#231;&#188;&#150;&#231;&#187;&#132;&#229;&#164;&#135;&#228;&#187;&#189; 2">
<path id="Fill 1" fill-rule="evenodd" clip-rule="evenodd" d="M51.8191 27.2719L47.2738 22.7266L42.7285 27.2719L47.2738 31.8172L51.8191 36.3625L56.3644 31.8172L51.8191 27.2719Z" fill="#FFD815"/>
<path id="Fill 2" fill-rule="evenodd" clip-rule="evenodd" d="M51.8187 0L47.2734 4.5453L51.8187 9.0906L56.364 4.5453L51.8187 0Z" fill="#FF9813"/>
<path id="Fill 3" fill-rule="evenodd" clip-rule="evenodd" d="M69.9998 18.181L65.4545 13.6357L60.9092 18.181L65.4545 22.7263L69.9998 18.181Z" fill="#FF9813"/>
<path id="Fill 4" fill-rule="evenodd" clip-rule="evenodd" d="M42.7285 54.5433L47.2738 59.0886L51.8191 54.5433L47.2738 49.998L42.7285 54.5433Z" fill="#FF9813"/>
<path id="Fill 5" fill-rule="evenodd" clip-rule="evenodd" d="M10.9111 22.7265L15.4564 27.2718L20.0017 22.7265L15.4564 18.1812L10.9111 22.7265Z" fill="#FF9813"/>
<path id="Fill 6" fill-rule="evenodd" clip-rule="evenodd" d="M33.6381 0L29.0928 4.5453L33.6381 9.0906L38.183 4.5453L33.6381 0Z" fill="#FF9813"/>
<path id="Fill 7" fill-rule="evenodd" clip-rule="evenodd" d="M15.457 9.09071L20.0023 13.636L24.5476 9.09071L20.0023 4.54541L15.457 9.09071Z" fill="#FF9813"/>
<path id="Fill 8" fill-rule="evenodd" clip-rule="evenodd" d="M65.4545 31.8169L60.9092 36.3622L65.4545 40.9075L69.9998 36.3622L65.4545 31.8169Z" fill="#FF9813"/>
<path id="Fill 9" fill-rule="evenodd" clip-rule="evenodd" d="M56.3643 49.9979L60.9095 54.5432L65.4548 49.9979L60.9095 45.4526L56.3643 49.9979Z" fill="#FF9813"/>
<path id="Fill 10" fill-rule="evenodd" clip-rule="evenodd" d="M51.8189 36.3619L47.2736 31.8166L42.7284 36.3619L38.1831 31.8166L33.6378 27.2713L38.1831 22.726L33.6378 18.181L29.0928 13.6357L24.5475 18.181L29.0928 22.726L24.5475 27.2713L29.0928 31.8166L24.5475 36.3619L22.2747 34.0894L17.7294 38.6344L22.2747 43.1797L17.7294 47.725L13.4102 52.0446L9.09058 56.3642L4.54529 60.9095L0 65.4545L4.54529 69.9998L9.09058 65.4545L13.6359 60.9095L17.9551 56.5899L18.1812 56.3642L22.2747 52.2703L22.5004 52.0446L26.82 47.725L31.3653 52.2703L35.9106 47.725L33.6378 45.4525L38.1831 40.9072L42.7284 45.4525L47.2736 40.9072L51.8189 45.4525L56.3642 40.9072L51.8189 36.3619Z" fill="#5B5B72"/>
<path id="Fill 11" fill-rule="evenodd" clip-rule="evenodd" d="M51.8189 18.181L47.2736 13.6357L42.7283 18.181L38.183 13.6357L33.6377 18.181L38.183 22.7263L33.6377 27.2716L38.183 31.8169L42.7283 36.3619L47.2736 31.8169L42.7283 27.2716L47.2736 22.7263L51.8189 27.2716L56.3641 22.7263L51.8189 18.181Z" fill="#FF9813"/>
</g>
</svg>
